<svg width="17" height="17" viewBox="0 0 17 17" fill="none" xmlns="http://www.w3.org/2000/svg">
<path d="M8.69521 0.00142294C8.69521 0.00142294 13.4143 -0.210347 15.9163 4.53305H8.29366C8.29366 4.53305 6.85512 4.48669 5.62629 6.23185C5.2733 6.96433 4.89387 7.71888 5.31967 9.2059C4.70629 8.16673 2.06323 3.56455 2.06323 3.56455C2.06323 3.56455 3.9275 0.188946 8.69514 0.00142294H8.69521Z" fill="#EF3F36"/>
<path d="M15.6712 12.0426C15.6712 12.0426 13.4936 16.2367 8.13684 16.0293C8.79872 14.8842 11.9492 9.4282 11.9492 9.4282C11.9492 9.4282 12.7104 8.20595 11.8124 6.26888C11.3557 5.59598 10.8902 4.89219 9.38998 4.51708C10.5968 4.50612 15.9028 4.51708 15.9028 4.51708C15.9028 4.51708 17.8906 7.81988 15.6712 12.0426Z" fill="#FCD900"/>
<path d="M1.75208 12.0759C1.75208 12.0759 -0.791733 8.09363 2.06754 3.55762C2.72722 4.70268 5.87771 10.1587 5.87771 10.1587C5.87771 10.1587 6.55725 11.4295 8.68184 11.6192C9.49158 11.5596 10.3343 11.5089 11.411 10.3992C10.8175 11.4494 8.15449 16.0383 8.15449 16.0383C8.15449 16.0383 4.29802 16.1089 1.75201 12.0759H1.75208Z" fill="#61BC5B"/>
<path d="M8.13452 16.0701L9.20672 11.5959C9.20672 11.5959 10.3849 11.5031 11.3733 10.4199C10.7599 11.4988 8.13452 16.0701 8.13452 16.0701Z" fill="#5AB055"/>
<path d="M5.10339 8.0841C5.10339 6.11176 6.70295 4.51221 8.67529 4.51221C10.6476 4.51221 12.2472 6.11176 12.2472 8.0841C12.2472 10.0565 10.6476 11.656 8.67529 11.656C6.70295 11.6538 5.10339 10.0565 5.10339 8.0841Z" fill="white"/>
<path d="M5.70154 8.08483C5.70154 6.44342 7.03193 5.11084 8.67559 5.11084C10.317 5.11084 11.6496 6.44123 11.6496 8.08483C11.6496 9.7263 10.3193 11.0589 8.67559 11.0589C7.03412 11.0589 5.70154 9.7263 5.70154 8.08483Z" fill="url(#paint0_linear)"/>
<path d="M15.9009 4.51955L11.4862 5.81461C11.4862 5.81461 10.8199 4.83721 9.38806 4.51955C10.6302 4.51291 15.9009 4.51955 15.9009 4.51955Z" fill="#EACA05"/>
<path d="M5.23364 9.04253C4.61362 7.96808 2.06323 3.56445 2.06323 3.56445L5.33289 6.79877C5.33289 6.79877 4.9975 7.48934 5.12331 8.47771L5.23358 9.04253H5.23364Z" fill="#DF3A32"/>
<defs>
<linearGradient id="paint0_linear" x1="8.67544" y1="5.15283" x2="8.67544" y2="10.8798" gradientUnits="userSpaceOnUse">
<stop stop-color="#86BBE5"/>
<stop offset="1" stop-color="#1072BA"/>
</linearGradient>
</defs>
</svg>
