<svg width="24" height="24" viewBox="0 0 24 24" fill="none" xmlns="http://www.w3.org/2000/svg"><path d="M21.3316 8.65377L23.8626 6.1227C23.967 6.01851 24.0161 5.87111 23.9952 5.72518C23.9745 5.57924 23.8861 5.45144 23.7568 5.38039L20.714 3.70955C20.4871 3.58504 20.2022 3.66799 20.0775 3.89486C19.953 4.12191 20.0357 4.40682 20.2628 4.53133L22.7581 5.90151L20.586 8.07351L12.7734 3.78353L14.9454 1.61153L17.141 2.81728C17.3679 2.94179 17.653 2.85903 17.7775 2.63198C17.9022 2.40511 17.8192 2.12001 17.5922 1.9955L15.0882 0.62038C14.9055 0.520039 14.6784 0.552448 14.5312 0.699848L12 3.2311L9.46871 0.699848C9.32131 0.552448 9.09426 0.520222 8.91171 0.62038L0.243125 5.38039C0.113853 5.45144 0.0254129 5.57906 0.0047219 5.72518C-0.0161521 5.87111 0.0329202 6.01851 0.13729 6.1227L2.66836 8.65377L0.13729 11.1847C0.0329202 11.289 -0.0161521 11.4362 0.0047219 11.5824C0.0254129 11.7283 0.113853 11.8561 0.243125 11.927L2.86263 13.3654V18.1734C2.86263 18.3446 2.95583 18.5021 3.1058 18.5845L11.7744 23.3443C11.8447 23.383 11.9223 23.4022 12 23.4022C12.0776 23.4022 12.1552 23.383 12.2255 23.3443L20.8941 18.5845C21.0441 18.5021 21.1373 18.3446 21.1373 18.1734V13.3654L23.7568 11.9271C23.8861 11.8561 23.9745 11.7283 23.9952 11.5824C24.0161 11.4364 23.967 11.289 23.8626 11.1848L21.3316 8.65377ZM12 12.8787L4.30532 8.65358L12 4.42824L19.6946 8.65358L12 12.8787ZM9.05471 1.61153L11.2265 3.78353L3.41396 8.07351L1.24197 5.90151L9.05471 1.61153ZM3.41433 9.23384L11.2269 13.5238L9.05471 15.696L1.24197 11.406L3.41433 9.23384ZM20.1998 17.8962L12.4687 22.1413V17.3496C12.4687 17.0907 12.2589 16.8809 12 16.8809C11.7411 16.8809 11.5312 17.0907 11.5312 17.3496V22.1413L3.80013 17.8962V13.8803L8.91171 16.6872C8.98257 16.726 9.0602 16.745 9.13711 16.745C9.25851 16.745 9.37862 16.6978 9.46871 16.6077L12 14.0764L14.5312 16.6077C14.6213 16.698 14.7414 16.745 14.8628 16.745C14.9397 16.745 15.0174 16.726 15.0882 16.6872L20.1998 13.8803V17.8962ZM14.9454 15.696L12.7732 13.5236L20.5858 9.23384L22.7581 11.4058L14.9454 15.696Z" fill="black"></path></svg>