<svg width="18" height="18" viewBox="0 0 18 18" fill="none" xmlns="http://www.w3.org/2000/svg">
<path d="M1.19995 14.3999H8.99995V14.9999H1.19995V14.3999Z" fill="#2B2D42"/>
<path d="M5.09995 17.0999C4.60293 17.0999 4.19995 16.6969 4.19995 16.1999C4.19995 15.7029 4.60293 15.2999 5.09995 15.2999C5.59697 15.2999 5.99995 15.7029 5.99995 16.1999C5.99995 16.6969 5.59697 17.0999 5.09995 17.0999ZM5.09995 15.8999C4.93428 15.8999 4.79995 16.0343 4.79995 16.1999C4.79995 16.3656 4.93428 16.4999 5.09995 16.4999C5.26563 16.4999 5.39995 16.3656 5.39995 16.1999C5.39995 16.0343 5.26563 15.8999 5.09995 15.8999Z" fill="#2B2D42"/>
<path d="M9.6 16.5C9.6 16.997 9.19702 17.4 8.7 17.4H1.5C1.00298 17.4 0.6 16.997 0.6 16.5V1.5C0.6 1.00298 1.00298 0.6 1.5 0.6H2.1V0.9C2.1 1.39702 2.50298 1.8 3 1.8H7.2C7.69702 1.8 8.1 1.39702 8.1 0.9V0.6H8.7C9.19702 0.6 9.6 1.00298 9.6 1.5V3.6H10.2V1.5C10.199 0.671924 9.52808 0.00102539 8.7 0H1.5C0.671924 0.00102539 0.00102539 0.671924 0 1.5V16.5C0.00102539 17.3281 0.671924 17.999 1.5 18H8.7C9.52808 17.999 10.199 17.3281 10.2 16.5V9.6H9.6V16.5ZM2.7 0.6H7.5V0.9C7.5 1.06567 7.36567 1.2 7.2 1.2H3C2.83433 1.2 2.7 1.06567 2.7 0.9V0.6Z" fill="#2B2D42"/>
<path d="M4.19995 4.19995V8.99995H18V4.19995H4.19995ZM17.4 8.39995H4.79995V4.79995H17.4V8.39995Z" fill="#2B2D42"/>
<path d="M5.71089 7.45977L6.30005 7.11948V7.7999H6.90005V7.11948L7.48921 7.45977L7.78921 6.94004L7.20005 6.5999L7.78921 6.25977L7.48921 5.74004L6.90005 6.08032V5.3999H6.30005V6.08032L5.71089 5.74004L5.41089 6.25977L6.00005 6.5999L5.41089 6.94004L5.71089 7.45977Z" fill="#2B2D42"/>
<path d="M8.71089 7.45977L9.30005 7.11948V7.7999H9.90005V7.11948L10.4892 7.45977L10.7892 6.94004L10.2 6.5999L10.7892 6.25977L10.4892 5.74004L9.90005 6.08032V5.3999H9.30005V6.08032L8.71089 5.74004L8.41089 6.25977L9.00005 6.5999L8.41089 6.94004L8.71089 7.45977Z" fill="#2B2D42"/>
<path d="M11.7108 7.45977L12.3 7.11948V7.7999H12.9V7.11948L13.4891 7.45977L13.7891 6.94004L13.2 6.5999L13.7891 6.25977L13.4891 5.74004L12.9 6.08032V5.3999H12.3V6.08032L11.7108 5.74004L11.4108 6.25977L12 6.5999L11.4108 6.94004L11.7108 7.45977Z" fill="#2B2D42"/>
<path d="M14.7109 7.45977L15.3 7.11948V7.7999H15.9V7.11948L16.4892 7.45977L16.7892 6.94004L16.2 6.5999L16.7892 6.25977L16.4892 5.74004L15.9 6.08032V5.3999H15.3V6.08032L14.7109 5.74004L14.4109 6.25977L15 6.5999L14.4109 6.94004L14.7109 7.45977Z" fill="#2B2D42"/>
</svg>
