<svg xmlns="http://www.w3.org/2000/svg" width="218" height="218" viewBox="0 0 218 218" fill="none">
  <path d="M9.18 0.5H0.5V9.18H9.18V0.5Z" fill="black" fill-opacity="0.1"/>
  <path d="M17.86 0.5H9.18V9.18H17.86V0.5Z" fill="black" fill-opacity="0.1"/>
  <path d="M26.54 0.5H17.86V9.18H26.54V0.5Z" fill="black" fill-opacity="0.1"/>
  <path d="M35.22 0.5H26.54V9.18H35.22V0.5Z" fill="black" fill-opacity="0.1"/>
  <path d="M43.9 0.5H35.22V9.18H43.9V0.5Z" fill="black" fill-opacity="0.1"/>
  <path d="M52.58 0.5H43.9V9.18H52.58V0.5Z" fill="black" fill-opacity="0.1"/>
  <path d="M61.26 0.5H52.58V9.18H61.26V0.5Z" fill="black" fill-opacity="0.1"/>
  <path d="M78.62 0.5H69.94V9.18H78.62V0.5Z" fill="black" fill-opacity="0.1"/>
  <path d="M95.98 0.5H87.3V9.18H95.98V0.5Z" fill="black" fill-opacity="0.1"/>
  <path d="M104.66 0.5H95.98V9.18H104.66V0.5Z" fill="black" fill-opacity="0.1"/>
  <path d="M113.34 0.5H104.66V9.18H113.34V0.5Z" fill="black" fill-opacity="0.1"/>
  <path d="M139.38 0.5H130.7V9.18H139.38V0.5Z" fill="black" fill-opacity="0.1"/>
  <path d="M165.42 0.5H156.74V9.18H165.42V0.5Z" fill="black" fill-opacity="0.1"/>
  <path d="M174.1 0.5H165.42V9.18H174.1V0.5Z" fill="black" fill-opacity="0.1"/>
  <path d="M182.78 0.5H174.1V9.18H182.78V0.5Z" fill="black" fill-opacity="0.1"/>
  <path d="M191.46 0.5H182.78V9.18H191.46V0.5Z" fill="black" fill-opacity="0.1"/>
  <path d="M200.14 0.5H191.46V9.18H200.14V0.5Z" fill="black" fill-opacity="0.1"/>
  <path d="M208.82 0.5H200.14V9.18H208.82V0.5Z" fill="black" fill-opacity="0.1"/>
  <path d="M217.5 0.5H208.82V9.18H217.5V0.5Z" fill="black" fill-opacity="0.1"/>
  <path d="M9.18 9.18H0.5V17.86H9.18V9.18Z" fill="black" fill-opacity="0.1"/>
  <path d="M61.26 9.18H52.58L52.58 17.86H61.26V9.18Z" fill="black" fill-opacity="0.1"/>
  <path d="M122.02 9.18H113.34V17.86H122.02V9.18Z" fill="black" fill-opacity="0.1"/>
  <path d="M130.7 9.18H122.02V17.86H130.7L130.7 9.18Z" fill="black" fill-opacity="0.1"/>
  <path d="M165.42 9.18H156.74V17.86H165.42V9.18Z" fill="black" fill-opacity="0.1"/>
  <path d="M217.5 9.18H208.82V17.86H217.5V9.18Z" fill="black" fill-opacity="0.1"/>
  <path d="M9.18 17.86H0.5V26.54H9.18V17.86Z" fill="black" fill-opacity="0.1"/>
  <path d="M26.54 17.86H17.86V26.54H26.54V17.86Z" fill="black" fill-opacity="0.1"/>
  <path d="M35.22 17.86H26.54V26.54H35.22V17.86Z" fill="black" fill-opacity="0.1"/>
  <path d="M43.9 17.86H35.22V26.54H43.9V17.86Z" fill="black" fill-opacity="0.1"/>
  <path d="M61.26 17.86H52.58V26.54H61.26V17.86Z" fill="black" fill-opacity="0.1"/>
  <path d="M78.62 17.86H69.94V26.54H78.62V17.86Z" fill="black" fill-opacity="0.1"/>
  <path d="M87.3 17.86H78.62V26.54H87.3V17.86Z" fill="black" fill-opacity="0.1"/>
  <path d="M122.02 17.86H113.34V26.54H122.02V17.86Z" fill="black" fill-opacity="0.1"/>
  <path d="M165.42 17.86H156.74V26.54H165.42V17.86Z" fill="black" fill-opacity="0.1"/>
  <path d="M182.78 17.86H174.1V26.54H182.78V17.86Z" fill="black" fill-opacity="0.1"/>
  <path d="M191.46 17.86H182.78V26.54H191.46V17.86Z" fill="black" fill-opacity="0.1"/>
  <path d="M200.14 17.86H191.46V26.54H200.14V17.86Z" fill="black" fill-opacity="0.1"/>
  <path d="M217.5 17.86H208.82V26.54H217.5V17.86Z" fill="black" fill-opacity="0.1"/>
  <path d="M9.18 26.54H0.5V35.22H9.18V26.54Z" fill="black" fill-opacity="0.1"/>
  <path d="M26.54 26.54H17.86V35.22H26.54V26.54Z" fill="black" fill-opacity="0.1"/>
  <path d="M35.22 26.54H26.54V35.22H35.22V26.54Z" fill="black" fill-opacity="0.1"/>
  <path d="M43.9 26.54H35.22V35.22H43.9V26.54Z" fill="black" fill-opacity="0.1"/>
  <path d="M61.26 26.54H52.58V35.22H61.26V26.54Z" fill="black" fill-opacity="0.1"/>
  <path d="M78.62 26.54H69.94V35.22H78.62V26.54Z" fill="black" fill-opacity="0.1"/>
  <path d="M95.98 26.54H87.3V35.22H95.98V26.54Z" fill="black" fill-opacity="0.1"/>
  <path d="M104.66 26.54H95.98V35.22H104.66V26.54Z" fill="black" fill-opacity="0.1"/>
  <path d="M113.34 26.54H104.66V35.22H113.34V26.54Z" fill="black" fill-opacity="0.1"/>
  <path d="M122.02 26.54H113.34V35.22H122.02V26.54Z" fill="black" fill-opacity="0.1"/>
  <path d="M130.7 26.54H122.02V35.22H130.7V26.54Z" fill="black" fill-opacity="0.1"/>
  <path d="M139.38 26.54H130.7V35.22H139.38V26.54Z" fill="black" fill-opacity="0.1"/>
  <path d="M148.06 26.54H139.38V35.22H148.06V26.54Z" fill="black" fill-opacity="0.1"/>
  <path d="M165.42 26.54H156.74V35.22H165.42V26.54Z" fill="black" fill-opacity="0.1"/>
  <path d="M182.78 26.54H174.1V35.22H182.78V26.54Z" fill="black" fill-opacity="0.1"/>
  <path d="M191.46 26.54H182.78V35.22H191.46V26.54Z" fill="black" fill-opacity="0.1"/>
  <path d="M200.14 26.54H191.46V35.22H200.14V26.54Z" fill="black" fill-opacity="0.1"/>
  <path d="M217.5 26.54H208.82V35.22H217.5V26.54Z" fill="black" fill-opacity="0.1"/>
  <path d="M9.18 35.22H0.5V43.9H9.18V35.22Z" fill="black" fill-opacity="0.1"/>
  <path d="M26.54 35.22H17.86V43.9H26.54V35.22Z" fill="black" fill-opacity="0.1"/>
  <path d="M35.22 35.22H26.54V43.9H35.22V35.22Z" fill="black" fill-opacity="0.1"/>
  <path d="M43.9 35.22H35.22V43.9H43.9V35.22Z" fill="black" fill-opacity="0.1"/>
  <path d="M61.26 35.22H52.58V43.9H61.26V35.22Z" fill="black" fill-opacity="0.1"/>
  <path d="M87.3 35.22H78.62V43.9H87.3V35.22Z" fill="black" fill-opacity="0.1"/>
  <path d="M95.98 35.22H87.3V43.9H95.98V35.22Z" fill="black" fill-opacity="0.1"/>
  <path d="M113.34 35.22H104.66V43.9H113.34V35.22Z" fill="black" fill-opacity="0.1"/>
  <path d="M130.7 35.22H122.02V43.9H130.7V35.22Z" fill="black" fill-opacity="0.1"/>
  <path d="M148.06 35.22H139.38V43.9H148.06V35.22Z" fill="black" fill-opacity="0.1"/>
  <path d="M165.42 35.22H156.74V43.9H165.42V35.22Z" fill="black" fill-opacity="0.1"/>
  <path d="M182.78 35.22H174.1V43.9H182.78V35.22Z" fill="black" fill-opacity="0.1"/>
  <path d="M191.46 35.22H182.78V43.9H191.46V35.22Z" fill="black" fill-opacity="0.1"/>
  <path d="M200.14 35.22H191.46V43.9H200.14V35.22Z" fill="black" fill-opacity="0.1"/>
  <path d="M217.5 35.22H208.82V43.9H217.5V35.22Z" fill="black" fill-opacity="0.1"/>
  <path d="M9.18 43.9H0.5V52.58H9.18V43.9Z" fill="black" fill-opacity="0.1"/>
  <path d="M61.26 43.9H52.58V52.58H61.26V43.9Z" fill="black" fill-opacity="0.1"/>
  <path d="M78.62 43.9H69.94V52.58H78.62V43.9Z" fill="black" fill-opacity="0.1"/>
  <path d="M87.3 43.9H78.62V52.58H87.3V43.9Z" fill="black" fill-opacity="0.1"/>
  <path d="M104.66 43.9H95.98V52.58H104.66V43.9Z" fill="black" fill-opacity="0.1"/>
  <path d="M113.34 43.9H104.66V52.58H113.34V43.9Z" fill="black" fill-opacity="0.1"/>
  <path d="M165.42 43.9H156.74V52.58H165.42V43.9Z" fill="black" fill-opacity="0.1"/>
  <path d="M217.5 43.9H208.82V52.58H217.5V43.9Z" fill="black" fill-opacity="0.1"/>
  <path d="M9.18 52.58H0.5V61.26H9.18V52.58Z" fill="black" fill-opacity="0.1"/>
  <path d="M17.86 52.58L9.18 52.58V61.26H17.86V52.58Z" fill="black" fill-opacity="0.1"/>
  <path d="M26.54 52.58H17.86V61.26H26.54V52.58Z" fill="black" fill-opacity="0.1"/>
  <path d="M35.22 52.58H26.54V61.26H35.22V52.58Z" fill="black" fill-opacity="0.1"/>
  <path d="M43.9 52.58H35.22V61.26H43.9V52.58Z" fill="black" fill-opacity="0.1"/>
  <path d="M52.58 52.58L43.9 52.58V61.26H52.58L52.58 52.58Z" fill="black" fill-opacity="0.1"/>
  <path d="M61.26 52.58H52.58L52.58 61.26H61.26V52.58Z" fill="black" fill-opacity="0.1"/>
  <path d="M78.62 52.58H69.94V61.26H78.62V52.58Z" fill="black" fill-opacity="0.1"/>
  <path d="M95.98 52.58H87.3V61.26H95.98V52.58Z" fill="black" fill-opacity="0.1"/>
  <path d="M113.34 52.58H104.66V61.26H113.34V52.58Z" fill="black" fill-opacity="0.1"/>
  <path d="M130.7 52.58H122.02V61.26H130.7V52.58Z" fill="black" fill-opacity="0.1"/>
  <path d="M148.06 52.58H139.38V61.26H148.06V52.58Z" fill="black" fill-opacity="0.1"/>
  <path d="M165.42 52.58H156.74V61.26H165.42V52.58Z" fill="black" fill-opacity="0.1"/>
  <path d="M174.1 52.58L165.42 52.58V61.26H174.1V52.58Z" fill="black" fill-opacity="0.1"/>
  <path d="M182.78 52.58H174.1V61.26H182.78V52.58Z" fill="black" fill-opacity="0.1"/>
  <path d="M191.46 52.58H182.78V61.26H191.46V52.58Z" fill="black" fill-opacity="0.1"/>
  <path d="M200.14 52.58H191.46V61.26H200.14V52.58Z" fill="black" fill-opacity="0.1"/>
  <path d="M208.82 52.58L200.14 52.58V61.26H208.82V52.58Z" fill="black" fill-opacity="0.1"/>
  <path d="M217.5 52.58H208.82V61.26H217.5V52.58Z" fill="black" fill-opacity="0.1"/>
  <path d="M78.62 61.26H69.94V69.94H78.62V61.26Z" fill="black" fill-opacity="0.1"/>
  <path d="M95.98 61.26H87.3V69.94H95.98V61.26Z" fill="black" fill-opacity="0.1"/>
  <path d="M104.66 61.26H95.98V69.94H104.66V61.26Z" fill="black" fill-opacity="0.1"/>
  <path d="M130.7 61.26H122.02V69.94H130.7V61.26Z" fill="black" fill-opacity="0.1"/>
  <path d="M148.06 61.26H139.38V69.94H148.06V61.26Z" fill="black" fill-opacity="0.1"/>
  <path d="M9.18 69.94H0.5V78.62H9.18V69.94Z" fill="black" fill-opacity="0.1"/>
  <path d="M17.86 69.94H9.18V78.62H17.86V69.94Z" fill="black" fill-opacity="0.1"/>
  <path d="M35.22 69.94H26.54V78.62H35.22V69.94Z" fill="black" fill-opacity="0.1"/>
  <path d="M61.26 69.94H52.58V78.62H61.26V69.94Z" fill="black" fill-opacity="0.1"/>
  <path d="M69.94 69.94H61.26V78.62H69.94V69.94Z" fill="black" fill-opacity="0.1"/>
  <path d="M95.98 69.94H87.3V78.62H95.98V69.94Z" fill="black" fill-opacity="0.1"/>
  <path d="M113.34 69.94H104.66V78.62H113.34V69.94Z" fill="black" fill-opacity="0.1"/>
  <path d="M156.74 69.94H148.06V78.62H156.74V69.94Z" fill="black" fill-opacity="0.1"/>
  <path d="M165.42 69.94H156.74V78.62H165.42V69.94Z" fill="black" fill-opacity="0.1"/>
  <path d="M174.1 69.94H165.42V78.62H174.1V69.94Z" fill="black" fill-opacity="0.1"/>
  <path d="M191.46 69.94H182.78V78.62H191.46V69.94Z" fill="black" fill-opacity="0.1"/>
  <path d="M200.14 69.94H191.46V78.62H200.14V69.94Z" fill="black" fill-opacity="0.1"/>
  <path d="M217.5 69.94H208.82V78.62H217.5V69.94Z" fill="black" fill-opacity="0.1"/>
  <path d="M9.18 78.62H0.5V87.3H9.18V78.62Z" fill="black" fill-opacity="0.1"/>
  <path d="M17.86 78.62H9.18V87.3H17.86V78.62Z" fill="black" fill-opacity="0.1"/>
  <path d="M26.54 78.62H17.86V87.3H26.54V78.62Z" fill="black" fill-opacity="0.1"/>
  <path d="M43.9 78.62H35.22V87.3H43.9V78.62Z" fill="black" fill-opacity="0.1"/>
  <path d="M52.58 78.62H43.9V87.3H52.58L52.58 78.62Z" fill="black" fill-opacity="0.1"/>
  <path d="M69.94 78.62H61.26V87.3H69.94V78.62Z" fill="black" fill-opacity="0.1"/>
  <path d="M87.3 78.62H78.62V87.3H87.3V78.62Z" fill="black" fill-opacity="0.1"/>
  <path d="M104.66 78.62H95.98V87.3H104.66V78.62Z" fill="black" fill-opacity="0.1"/>
  <path d="M122.02 78.62H113.34V87.3H122.02V78.62Z" fill="black" fill-opacity="0.1"/>
  <path d="M130.7 78.62H122.02V87.3H130.7V78.62Z" fill="black" fill-opacity="0.1"/>
  <path d="M139.38 78.62H130.7V87.3H139.38V78.62Z" fill="black" fill-opacity="0.1"/>
  <path d="M174.1 78.62H165.42V87.3H174.1V78.62Z" fill="black" fill-opacity="0.1"/>
  <path d="M182.78 78.62H174.1V87.3H182.78V78.62Z" fill="black" fill-opacity="0.1"/>
  <path d="M191.46 78.62H182.78V87.3H191.46V78.62Z" fill="black" fill-opacity="0.1"/>
  <path d="M200.14 78.62H191.46V87.3H200.14V78.62Z" fill="black" fill-opacity="0.1"/>
  <path d="M217.5 78.62H208.82V87.3H217.5V78.62Z" fill="black" fill-opacity="0.1"/>
  <path d="M9.18 87.3H0.5V95.98H9.18V87.3Z" fill="black" fill-opacity="0.1"/>
  <path d="M17.86 87.3H9.18V95.98H17.86V87.3Z" fill="black" fill-opacity="0.1"/>
  <path d="M35.22 87.3H26.54V95.98H35.22V87.3Z" fill="black" fill-opacity="0.1"/>
  <path d="M61.26 87.3H52.58L52.58 95.98H61.26V87.3Z" fill="black" fill-opacity="0.1"/>
  <path d="M69.94 87.3H61.26V95.98H69.94V87.3Z" fill="black" fill-opacity="0.1"/>
  <path d="M78.62 87.3H69.94V95.98H78.62V87.3Z" fill="black" fill-opacity="0.1"/>
  <path d="M104.66 87.3H95.98V95.98H104.66V87.3Z" fill="black" fill-opacity="0.1"/>
  <path d="M122.02 87.3H113.34V95.98H122.02V87.3Z" fill="black" fill-opacity="0.1"/>
  <path d="M130.7 87.3H122.02V95.98H130.7V87.3Z" fill="black" fill-opacity="0.1"/>
  <path d="M139.38 87.3H130.7V95.98H139.38V87.3Z" fill="black" fill-opacity="0.1"/>
  <path d="M148.06 87.3H139.38V95.98H148.06V87.3Z" fill="black" fill-opacity="0.1"/>
  <path d="M156.74 87.3H148.06V95.98H156.74V87.3Z" fill="black" fill-opacity="0.1"/>
  <path d="M165.42 87.3H156.74V95.98H165.42V87.3Z" fill="black" fill-opacity="0.1"/>
  <path d="M182.78 87.3H174.1V95.98H182.78V87.3Z" fill="black" fill-opacity="0.1"/>
  <path d="M191.46 87.3H182.78V95.98H191.46V87.3Z" fill="black" fill-opacity="0.1"/>
  <path d="M43.9 95.98H35.22V104.66H43.9V95.98Z" fill="black" fill-opacity="0.1"/>
  <path d="M69.94 95.98H61.26V104.66H69.94V95.98Z" fill="black" fill-opacity="0.1"/>
  <path d="M78.62 95.98H69.94V104.66H78.62V95.98Z" fill="black" fill-opacity="0.1"/>
  <path d="M95.98 95.98H87.3V104.66H95.98V95.98Z" fill="black" fill-opacity="0.1"/>
  <path d="M113.34 95.98H104.66V104.66H113.34V95.98Z" fill="black" fill-opacity="0.1"/>
  <path d="M122.02 95.98H113.34V104.66H122.02V95.98Z" fill="black" fill-opacity="0.1"/>
  <path d="M148.06 95.98H139.38V104.66H148.06V95.98Z" fill="black" fill-opacity="0.1"/>
  <path d="M165.42 95.98H156.74V104.66H165.42V95.98Z" fill="black" fill-opacity="0.1"/>
  <path d="M182.78 95.98H174.1V104.66H182.78V95.98Z" fill="black" fill-opacity="0.1"/>
  <path d="M200.14 95.98H191.46V104.66H200.14V95.98Z" fill="black" fill-opacity="0.1"/>
  <path d="M9.18 104.66H0.5V113.34H9.18V104.66Z" fill="black" fill-opacity="0.1"/>
  <path d="M26.54 104.66H17.86V113.34H26.54V104.66Z" fill="black" fill-opacity="0.1"/>
  <path d="M35.22 104.66H26.54V113.34H35.22V104.66Z" fill="black" fill-opacity="0.1"/>
  <path d="M43.9 104.66H35.22V113.34H43.9V104.66Z" fill="black" fill-opacity="0.1"/>
  <path d="M61.26 104.66H52.58V113.34H61.26V104.66Z" fill="black" fill-opacity="0.1"/>
  <path d="M87.3 104.66H78.62V113.34H87.3V104.66Z" fill="black" fill-opacity="0.1"/>
  <path d="M95.98 104.66H87.3V113.34H95.98V104.66Z" fill="black" fill-opacity="0.1"/>
  <path d="M104.66 104.66H95.98V113.34H104.66V104.66Z" fill="black" fill-opacity="0.1"/>
  <path d="M130.7 104.66H122.02V113.34H130.7V104.66Z" fill="black" fill-opacity="0.1"/>
  <path d="M139.38 104.66H130.7V113.34H139.38V104.66Z" fill="black" fill-opacity="0.1"/>
  <path d="M156.74 104.66H148.06V113.34H156.74V104.66Z" fill="black" fill-opacity="0.1"/>
  <path d="M165.42 104.66H156.74V113.34H165.42V104.66Z" fill="black" fill-opacity="0.1"/>
  <path d="M174.1 104.66H165.42V113.34H174.1V104.66Z" fill="black" fill-opacity="0.1"/>
  <path d="M182.78 104.66H174.1V113.34H182.78V104.66Z" fill="black" fill-opacity="0.1"/>
  <path d="M191.46 104.66H182.78V113.34H191.46V104.66Z" fill="black" fill-opacity="0.1"/>
  <path d="M200.14 104.66H191.46V113.34H200.14V104.66Z" fill="black" fill-opacity="0.1"/>
  <path d="M217.5 104.66H208.82V113.34H217.5V104.66Z" fill="black" fill-opacity="0.1"/>
  <path d="M26.54 113.34H17.86V122.02H26.54V113.34Z" fill="black" fill-opacity="0.1"/>
  <path d="M43.9 113.34H35.22V122.02H43.9V113.34Z" fill="black" fill-opacity="0.1"/>
  <path d="M69.94 113.34H61.26V122.02H69.94V113.34Z" fill="black" fill-opacity="0.1"/>
  <path d="M78.62 113.34H69.94V122.02H78.62V113.34Z" fill="black" fill-opacity="0.1"/>
  <path d="M104.66 113.34H95.98V122.02H104.66V113.34Z" fill="black" fill-opacity="0.1"/>
  <path d="M122.02 113.34H113.34V122.02H122.02V113.34Z" fill="black" fill-opacity="0.1"/>
  <path d="M139.38 113.34H130.7L130.7 122.02H139.38V113.34Z" fill="black" fill-opacity="0.1"/>
  <path d="M156.74 113.34H148.06V122.02H156.74V113.34Z" fill="black" fill-opacity="0.1"/>
  <path d="M182.78 113.34H174.1V122.02H182.78V113.34Z" fill="black" fill-opacity="0.1"/>
  <path d="M191.46 113.34H182.78V122.02H191.46V113.34Z" fill="black" fill-opacity="0.1"/>
  <path d="M200.14 113.34H191.46V122.02H200.14V113.34Z" fill="black" fill-opacity="0.1"/>
  <path d="M17.86 122.02H9.18V130.7H17.86V122.02Z" fill="black" fill-opacity="0.1"/>
  <path d="M26.54 122.02H17.86V130.7H26.54V122.02Z" fill="black" fill-opacity="0.1"/>
  <path d="M52.58 122.02H43.9V130.7H52.58V122.02Z" fill="black" fill-opacity="0.1"/>
  <path d="M61.26 122.02H52.58V130.7H61.26V122.02Z" fill="black" fill-opacity="0.1"/>
  <path d="M69.94 122.02H61.26V130.7H69.94V122.02Z" fill="black" fill-opacity="0.1"/>
  <path d="M78.62 122.02H69.94V130.7H78.62V122.02Z" fill="black" fill-opacity="0.1"/>
  <path d="M95.98 122.02H87.3V130.7H95.98V122.02Z" fill="black" fill-opacity="0.1"/>
  <path d="M104.66 122.02H95.98V130.7H104.66V122.02Z" fill="black" fill-opacity="0.1"/>
  <path d="M130.7 122.02H122.02V130.7H130.7L130.7 122.02Z" fill="black" fill-opacity="0.1"/>
  <path d="M191.46 122.02H182.78V130.7H191.46V122.02Z" fill="black" fill-opacity="0.1"/>
  <path d="M217.5 122.02H208.82V130.7H217.5V122.02Z" fill="black" fill-opacity="0.1"/>
  <path d="M9.18 130.7L0.5 130.7V139.38H9.18V130.7Z" fill="black" fill-opacity="0.1"/>
  <path d="M17.86 130.7H9.18V139.38H17.86V130.7Z" fill="black" fill-opacity="0.1"/>
  <path d="M26.54 130.7H17.86V139.38H26.54V130.7Z" fill="black" fill-opacity="0.1"/>
  <path d="M69.94 130.7H61.26V139.38H69.94V130.7Z" fill="black" fill-opacity="0.1"/>
  <path d="M78.62 130.7H69.94V139.38H78.62V130.7Z" fill="black" fill-opacity="0.1"/>
  <path d="M104.66 130.7H95.98V139.38H104.66V130.7Z" fill="black" fill-opacity="0.1"/>
  <path d="M122.02 130.7L113.34 130.7V139.38H122.02V130.7Z" fill="black" fill-opacity="0.1"/>
  <path d="M139.38 130.7L130.7 130.7L130.7 139.38H139.38V130.7Z" fill="black" fill-opacity="0.1"/>
  <path d="M148.06 130.7H139.38V139.38H148.06V130.7Z" fill="black" fill-opacity="0.1"/>
  <path d="M174.1 130.7H165.42V139.38H174.1V130.7Z" fill="black" fill-opacity="0.1"/>
  <path d="M191.46 130.7H182.78V139.38H191.46V130.7Z" fill="black" fill-opacity="0.1"/>
  <path d="M200.14 130.7L191.46 130.7V139.38H200.14V130.7Z" fill="black" fill-opacity="0.1"/>
  <path d="M217.5 130.7H208.82V139.38H217.5V130.7Z" fill="black" fill-opacity="0.1"/>
  <path d="M9.18 139.38H0.5V148.06H9.18V139.38Z" fill="black" fill-opacity="0.1"/>
  <path d="M61.26 139.38H52.58V148.06H61.26V139.38Z" fill="black" fill-opacity="0.1"/>
  <path d="M69.94 139.38H61.26V148.06H69.94V139.38Z" fill="black" fill-opacity="0.1"/>
  <path d="M78.62 139.38H69.94V148.06H78.62V139.38Z" fill="black" fill-opacity="0.1"/>
  <path d="M95.98 139.38H87.3V148.06H95.98V139.38Z" fill="black" fill-opacity="0.1"/>
  <path d="M122.02 139.38H113.34V148.06H122.02V139.38Z" fill="black" fill-opacity="0.1"/>
  <path d="M148.06 139.38H139.38V148.06H148.06V139.38Z" fill="black" fill-opacity="0.1"/>
  <path d="M156.74 139.38H148.06V148.06H156.74V139.38Z" fill="black" fill-opacity="0.1"/>
  <path d="M165.42 139.38H156.74V148.06H165.42V139.38Z" fill="black" fill-opacity="0.1"/>
  <path d="M174.1 139.38H165.42V148.06H174.1V139.38Z" fill="black" fill-opacity="0.1"/>
  <path d="M182.78 139.38H174.1V148.06H182.78V139.38Z" fill="black" fill-opacity="0.1"/>
  <path d="M191.46 139.38H182.78V148.06H191.46V139.38Z" fill="black" fill-opacity="0.1"/>
  <path d="M200.14 139.38H191.46V148.06H200.14V139.38Z" fill="black" fill-opacity="0.1"/>
  <path d="M87.3 148.06H78.62V156.74H87.3V148.06Z" fill="black" fill-opacity="0.1"/>
  <path d="M104.66 148.06H95.98V156.74H104.66V148.06Z" fill="black" fill-opacity="0.1"/>
  <path d="M113.34 148.06H104.66V156.74H113.34V148.06Z" fill="black" fill-opacity="0.1"/>
  <path d="M130.7 148.06H122.02V156.74H130.7V148.06Z" fill="black" fill-opacity="0.1"/>
  <path d="M148.06 148.06H139.38V156.74H148.06V148.06Z" fill="black" fill-opacity="0.1"/>
  <path d="M182.78 148.06H174.1V156.74H182.78V148.06Z" fill="black" fill-opacity="0.1"/>
  <path d="M191.46 148.06H182.78V156.74H191.46V148.06Z" fill="black" fill-opacity="0.1"/>
  <path d="M200.14 148.06H191.46V156.74H200.14V148.06Z" fill="black" fill-opacity="0.1"/>
  <path d="M208.82 148.06H200.14V156.74H208.82V148.06Z" fill="black" fill-opacity="0.1"/>
  <path d="M217.5 148.06H208.82V156.74H217.5V148.06Z" fill="black" fill-opacity="0.1"/>
  <path d="M9.18 156.74H0.5V165.42H9.18V156.74Z" fill="black" fill-opacity="0.1"/>
  <path d="M17.86 156.74H9.18V165.42H17.86V156.74Z" fill="black" fill-opacity="0.1"/>
  <path d="M26.54 156.74H17.86V165.42H26.54V156.74Z" fill="black" fill-opacity="0.1"/>
  <path d="M35.22 156.74H26.54V165.42H35.22V156.74Z" fill="black" fill-opacity="0.1"/>
  <path d="M43.9 156.74H35.22V165.42H43.9V156.74Z" fill="black" fill-opacity="0.1"/>
  <path d="M52.58 156.74H43.9V165.42H52.58V156.74Z" fill="black" fill-opacity="0.1"/>
  <path d="M61.26 156.74H52.58V165.42H61.26V156.74Z" fill="black" fill-opacity="0.1"/>
  <path d="M78.62 156.74H69.94V165.42H78.62V156.74Z" fill="black" fill-opacity="0.1"/>
  <path d="M113.34 156.74H104.66V165.42H113.34V156.74Z" fill="black" fill-opacity="0.1"/>
  <path d="M122.02 156.74H113.34V165.42H122.02V156.74Z" fill="black" fill-opacity="0.1"/>
  <path d="M139.38 156.74H130.7L130.7 165.42H139.38V156.74Z" fill="black" fill-opacity="0.1"/>
  <path d="M148.06 156.74H139.38V165.42H148.06V156.74Z" fill="black" fill-opacity="0.1"/>
  <path d="M165.42 156.74H156.74V165.42H165.42V156.74Z" fill="black" fill-opacity="0.1"/>
  <path d="M182.78 156.74H174.1V165.42H182.78V156.74Z" fill="black" fill-opacity="0.1"/>
  <path d="M191.46 156.74H182.78V165.42H191.46V156.74Z" fill="black" fill-opacity="0.1"/>
  <path d="M200.14 156.74H191.46V165.42H200.14V156.74Z" fill="black" fill-opacity="0.1"/>
  <path d="M217.5 156.74H208.82V165.42H217.5V156.74Z" fill="black" fill-opacity="0.1"/>
  <path d="M9.18 165.42H0.5V174.1H9.18V165.42Z" fill="black" fill-opacity="0.1"/>
  <path d="M61.26 165.42H52.58L52.58 174.1H61.26V165.42Z" fill="black" fill-opacity="0.1"/>
  <path d="M87.3 165.42H78.62V174.1H87.3V165.42Z" fill="black" fill-opacity="0.1"/>
  <path d="M122.02 165.42H113.34V174.1H122.02V165.42Z" fill="black" fill-opacity="0.1"/>
  <path d="M139.38 165.42H130.7V174.1H139.38V165.42Z" fill="black" fill-opacity="0.1"/>
  <path d="M148.06 165.42H139.38V174.1H148.06V165.42Z" fill="black" fill-opacity="0.1"/>
  <path d="M182.78 165.42H174.1V174.1H182.78V165.42Z" fill="black" fill-opacity="0.1"/>
  <path d="M217.5 165.42H208.82V174.1H217.5V165.42Z" fill="black" fill-opacity="0.1"/>
  <path d="M9.18 174.1H0.5V182.78H9.18V174.1Z" fill="black" fill-opacity="0.1"/>
  <path d="M26.54 174.1H17.86V182.78H26.54V174.1Z" fill="black" fill-opacity="0.1"/>
  <path d="M35.22 174.1H26.54V182.78H35.22V174.1Z" fill="black" fill-opacity="0.1"/>
  <path d="M43.9 174.1H35.22V182.78H43.9V174.1Z" fill="black" fill-opacity="0.1"/>
  <path d="M61.26 174.1H52.58V182.78H61.26V174.1Z" fill="black" fill-opacity="0.1"/>
  <path d="M104.66 174.1H95.98V182.78H104.66V174.1Z" fill="black" fill-opacity="0.1"/>
  <path d="M113.34 174.1H104.66V182.78H113.34V174.1Z" fill="black" fill-opacity="0.1"/>
  <path d="M122.02 174.1H113.34V182.78H122.02V174.1Z" fill="black" fill-opacity="0.1"/>
  <path d="M130.7 174.1H122.02V182.78H130.7L130.7 174.1Z" fill="black" fill-opacity="0.1"/>
  <path d="M139.38 174.1H130.7L130.7 182.78H139.38V174.1Z" fill="black" fill-opacity="0.1"/>
  <path d="M148.06 174.1H139.38V182.78H148.06V174.1Z" fill="black" fill-opacity="0.1"/>
  <path d="M156.74 174.1H148.06V182.78H156.74V174.1Z" fill="black" fill-opacity="0.1"/>
  <path d="M165.42 174.1H156.74V182.78H165.42V174.1Z" fill="black" fill-opacity="0.1"/>
  <path d="M174.1 174.1H165.42V182.78H174.1V174.1Z" fill="black" fill-opacity="0.1"/>
  <path d="M182.78 174.1H174.1V182.78H182.78V174.1Z" fill="black" fill-opacity="0.1"/>
  <path d="M191.46 174.1H182.78V182.78H191.46V174.1Z" fill="black" fill-opacity="0.1"/>
  <path d="M200.14 174.1H191.46V182.78H200.14V174.1Z" fill="black" fill-opacity="0.1"/>
  <path d="M208.82 174.1H200.14V182.78H208.82V174.1Z" fill="black" fill-opacity="0.1"/>
  <path d="M217.5 174.1H208.82V182.78H217.5V174.1Z" fill="black" fill-opacity="0.1"/>
  <path d="M9.18 182.78H0.5V191.46H9.18V182.78Z" fill="black" fill-opacity="0.1"/>
  <path d="M26.54 182.78H17.86V191.46H26.54V182.78Z" fill="black" fill-opacity="0.1"/>
  <path d="M35.22 182.78H26.54V191.46H35.22V182.78Z" fill="black" fill-opacity="0.1"/>
  <path d="M43.9 182.78H35.22V191.46H43.9V182.78Z" fill="black" fill-opacity="0.1"/>
  <path d="M61.26 182.78H52.58V191.46H61.26V182.78Z" fill="black" fill-opacity="0.1"/>
  <path d="M78.62 182.78H69.94V191.46H78.62V182.78Z" fill="black" fill-opacity="0.1"/>
  <path d="M104.66 182.78H95.98V191.46H104.66V182.78Z" fill="black" fill-opacity="0.1"/>
  <path d="M148.06 182.78H139.38V191.46H148.06V182.78Z" fill="black" fill-opacity="0.1"/>
  <path d="M182.78 182.78H174.1V191.46H182.78V182.78Z" fill="black" fill-opacity="0.1"/>
  <path d="M191.46 182.78H182.78V191.46H191.46V182.78Z" fill="black" fill-opacity="0.1"/>
  <path d="M217.5 182.78H208.82V191.46H217.5V182.78Z" fill="black" fill-opacity="0.1"/>
  <path d="M9.18 191.46H0.5V200.14H9.18V191.46Z" fill="black" fill-opacity="0.1"/>
  <path d="M26.54 191.46H17.86V200.14H26.54V191.46Z" fill="black" fill-opacity="0.1"/>
  <path d="M35.22 191.46H26.54V200.14H35.22V191.46Z" fill="black" fill-opacity="0.1"/>
  <path d="M43.9 191.46H35.22V200.14H43.9V191.46Z" fill="black" fill-opacity="0.1"/>
  <path d="M61.26 191.46H52.58V200.14H61.26V191.46Z" fill="black" fill-opacity="0.1"/>
  <path d="M104.66 191.46H95.98V200.14H104.66V191.46Z" fill="black" fill-opacity="0.1"/>
  <path d="M113.34 191.46H104.66V200.14H113.34V191.46Z" fill="black" fill-opacity="0.1"/>
  <path d="M130.7 191.46H122.02V200.14H130.7V191.46Z" fill="black" fill-opacity="0.1"/>
  <path d="M148.06 191.46H139.38V200.14H148.06V191.46Z" fill="black" fill-opacity="0.1"/>
  <path d="M156.74 191.46H148.06V200.14H156.74V191.46Z" fill="black" fill-opacity="0.1"/>
  <path d="M165.42 191.46H156.74V200.14H165.42V191.46Z" fill="black" fill-opacity="0.1"/>
  <path d="M191.46 191.46H182.78V200.14H191.46V191.46Z" fill="black" fill-opacity="0.1"/>
  <path d="M200.14 191.46H191.46V200.14H200.14V191.46Z" fill="black" fill-opacity="0.1"/>
  <path d="M208.82 191.46H200.14V200.14H208.82V191.46Z" fill="black" fill-opacity="0.1"/>
  <path d="M217.5 191.46H208.82V200.14H217.5V191.46Z" fill="black" fill-opacity="0.1"/>
  <path d="M9.18 200.14H0.5V208.82H9.18V200.14Z" fill="black" fill-opacity="0.1"/>
  <path d="M61.26 200.14H52.58V208.82H61.26V200.14Z" fill="black" fill-opacity="0.1"/>
  <path d="M78.62 200.14H69.94V208.82H78.62V200.14Z" fill="black" fill-opacity="0.1"/>
  <path d="M87.3 200.14H78.62V208.82H87.3V200.14Z" fill="black" fill-opacity="0.1"/>
  <path d="M113.34 200.14H104.66V208.82H113.34V200.14Z" fill="black" fill-opacity="0.1"/>
  <path d="M130.7 200.14H122.02V208.82H130.7V200.14Z" fill="black" fill-opacity="0.1"/>
  <path d="M148.06 200.14H139.38V208.82H148.06V200.14Z" fill="black" fill-opacity="0.1"/>
  <path d="M165.42 200.14H156.74V208.82H165.42V200.14Z" fill="black" fill-opacity="0.1"/>
  <path d="M174.1 200.14H165.42V208.82H174.1V200.14Z" fill="black" fill-opacity="0.1"/>
  <path d="M191.46 200.14H182.78V208.82H191.46V200.14Z" fill="black" fill-opacity="0.1"/>
  <path d="M200.14 200.14H191.46V208.82H200.14V200.14Z" fill="black" fill-opacity="0.1"/>
  <path d="M217.5 200.14H208.82V208.82H217.5V200.14Z" fill="black" fill-opacity="0.1"/>
  <path d="M9.18 208.82H0.5V217.5H9.18V208.82Z" fill="black" fill-opacity="0.1"/>
  <path d="M17.86 208.82H9.18V217.5H17.86V208.82Z" fill="black" fill-opacity="0.1"/>
  <path d="M26.54 208.82H17.86V217.5H26.54V208.82Z" fill="black" fill-opacity="0.1"/>
  <path d="M35.22 208.82H26.54V217.5H35.22V208.82Z" fill="black" fill-opacity="0.1"/>
  <path d="M43.9 208.82H35.22V217.5H43.9V208.82Z" fill="black" fill-opacity="0.1"/>
  <path d="M52.58 208.82H43.9V217.5H52.58L52.58 208.82Z" fill="black" fill-opacity="0.1"/>
  <path d="M61.26 208.82H52.58L52.58 217.5H61.26V208.82Z" fill="black" fill-opacity="0.1"/>
  <path d="M78.62 208.82H69.94V217.5H78.62V208.82Z" fill="black" fill-opacity="0.1"/>
  <path d="M113.34 208.82H104.66V217.5H113.34V208.82Z" fill="black" fill-opacity="0.1"/>
  <path d="M122.02 208.82H113.34V217.5H122.02V208.82Z" fill="black" fill-opacity="0.1"/>
  <path d="M139.38 208.82H130.7L130.7 217.5H139.38V208.82Z" fill="black" fill-opacity="0.1"/>
  <path d="M148.06 208.82H139.38V217.5H148.06V208.82Z" fill="black" fill-opacity="0.1"/>
  <path d="M156.74 208.82H148.06V217.5H156.74V208.82Z" fill="black" fill-opacity="0.1"/>
  <path d="M165.42 208.82H156.74V217.5H165.42V208.82Z" fill="black" fill-opacity="0.1"/>
  <path d="M191.46 208.82H182.78V217.5H191.46V208.82Z" fill="black" fill-opacity="0.1"/>
  <path d="M217.5 208.82H208.82V217.5H217.5V208.82Z" fill="black" fill-opacity="0.1"/>
</svg>